<svg width="373" height="184" viewBox="0 0 373 184" fill="none" xmlns="http://www.w3.org/2000/svg">
<line y1="94.5" x2="122" y2="94.5" stroke="#D9D9D9" stroke-width="5"/>
<line y1="45.5" x2="158" y2="45.5" stroke="#D9D9D9" stroke-width="5"/>
<line y1="145.5" x2="145" y2="145.5" stroke="#D9D9D9" stroke-width="5"/>
<path d="M152.105 58.6847C153.538 44.662 159.261 31.4936 168.426 21.1293C177.591 10.7649 189.711 3.75576 202.991 1.13957C216.272 -1.47661 230.007 0.439299 242.163 6.60361C254.319 12.7679 264.249 22.8529 270.483 35.3652C276.87 32.1971 283.871 30.6051 290.942 30.7124C298.014 30.8197 304.967 32.6234 311.264 35.984C317.56 39.3445 323.031 44.1718 327.253 50.0921C331.475 56.0124 334.335 62.867 335.611 70.1254H336.388C341.061 70.121 345.684 71.1344 349.96 73.1009C354.237 75.0673 358.073 77.9434 361.223 81.5453C364.373 85.1471 366.769 89.3953 368.255 94.0183C369.742 98.6412 370.288 103.537 369.857 108.393C369.427 113.248 368.03 117.957 365.756 122.217C363.482 126.477 360.381 130.194 356.651 133.132C352.921 136.07 348.644 138.164 344.095 139.278C339.545 140.393 334.823 140.505 330.23 139.606C327.687 147.422 322.868 154.214 316.446 159.033C310.024 163.852 302.32 166.458 294.41 166.487C288.804 166.483 283.271 165.171 278.215 162.645C272.258 170.417 264.451 176.422 255.574 180.061C246.697 183.7 237.06 184.845 227.626 183.382C218.192 181.919 209.291 177.899 201.812 171.724C194.333 165.549 188.537 157.435 185.003 148.191C179.238 151.231 172.926 152.975 166.475 153.311C160.023 153.647 153.576 152.566 147.55 150.139C141.524 147.713 136.053 143.994 131.49 139.223C126.927 134.452 123.375 128.736 121.062 122.443C118.749 116.15 117.727 109.42 118.062 102.689C118.397 95.9587 120.082 89.3762 123.008 83.3673C125.934 77.3584 130.035 72.0569 135.047 67.8052C140.059 63.5536 145.87 60.4465 152.105 58.6847Z" fill="#009BD8"/>
<path d="M204.782 101.43C203.3 101.43 201.98 101.092 200.822 100.418C199.678 99.7282 198.776 98.7895 198.116 97.6015C197.47 96.3989 197.148 95.0202 197.148 93.4655C197.148 91.9109 197.47 90.5395 198.116 89.3515C198.776 88.1489 199.678 87.2102 200.822 86.5355C201.966 85.8462 203.278 85.5015 204.76 85.5015C205.757 85.5015 206.696 85.6849 207.576 86.0515C208.456 86.4035 209.233 86.8949 209.908 87.5255C210.597 88.1562 211.125 88.8895 211.492 89.7255L209.16 90.6715C208.896 90.1142 208.536 89.6229 208.082 89.1975C207.642 88.7575 207.136 88.4202 206.564 88.1855C205.992 87.9509 205.39 87.8335 204.76 87.8335C203.792 87.8335 202.926 88.0755 202.164 88.5595C201.416 89.0435 200.822 89.7109 200.382 90.5615C199.956 91.3975 199.744 92.3655 199.744 93.4655C199.744 94.5655 199.956 95.5409 200.382 96.3915C200.822 97.2422 201.423 97.9095 202.186 98.3935C202.963 98.8775 203.843 99.1195 204.826 99.1195C205.471 99.1195 206.072 98.9949 206.63 98.7455C207.202 98.4815 207.708 98.1222 208.148 97.6675C208.602 97.2129 208.962 96.6849 209.226 96.0835L211.558 97.0295C211.191 97.8949 210.67 98.6649 209.996 99.3395C209.321 99.9995 208.536 100.513 207.642 100.88C206.747 101.246 205.794 101.43 204.782 101.43ZM213.552 101.166V85.7655H216.016V101.166H213.552ZM223.811 101.43C222.711 101.43 221.729 101.188 220.863 100.704C220.013 100.205 219.345 99.5229 218.861 98.6575C218.377 97.7922 218.135 96.7949 218.135 95.6655C218.135 94.5362 218.37 93.5389 218.839 92.6735C219.323 91.8082 219.991 91.1335 220.841 90.6495C221.692 90.1509 222.667 89.9015 223.767 89.9015C224.867 89.9015 225.843 90.1509 226.693 90.6495C227.544 91.1335 228.204 91.8082 228.673 92.6735C229.157 93.5389 229.399 94.5362 229.399 95.6655C229.399 96.7949 229.165 97.7922 228.695 98.6575C228.226 99.5229 227.566 100.205 226.715 100.704C225.865 101.188 224.897 101.43 223.811 101.43ZM223.811 99.1635C224.413 99.1635 224.948 99.0169 225.417 98.7235C225.887 98.4155 226.253 98.0049 226.517 97.4915C226.781 96.9635 226.913 96.3549 226.913 95.6655C226.913 94.9762 226.774 94.3749 226.495 93.8615C226.231 93.3335 225.865 92.9229 225.395 92.6295C224.926 92.3215 224.383 92.1675 223.767 92.1675C223.151 92.1675 222.609 92.3142 222.139 92.6075C221.67 92.9009 221.303 93.3115 221.039 93.8395C220.775 94.3675 220.643 94.9762 220.643 95.6655C220.643 96.3549 220.775 96.9635 221.039 97.4915C221.318 98.0049 221.692 98.4155 222.161 98.7235C222.645 99.0169 223.195 99.1635 223.811 99.1635ZM238.904 101.166L238.772 99.1415V90.1655H241.214V101.166H238.904ZM231.292 95.7975V90.1655H233.756V95.7975H231.292ZM233.756 95.7975C233.756 96.6629 233.859 97.3375 234.064 97.8215C234.27 98.3055 234.548 98.6429 234.9 98.8335C235.267 99.0242 235.685 99.1195 236.154 99.1195C236.99 99.1342 237.636 98.8629 238.09 98.3055C238.545 97.7482 238.772 96.9489 238.772 95.9075H239.696C239.696 97.0662 239.52 98.0635 239.168 98.8995C238.831 99.7209 238.347 100.352 237.716 100.792C237.1 101.217 236.352 101.43 235.472 101.43C234.607 101.43 233.859 101.254 233.228 100.902C232.612 100.55 232.136 99.9995 231.798 99.2515C231.461 98.5035 231.292 97.5429 231.292 96.3695V95.7975H233.756ZM251.894 101.166L251.784 99.1195V85.7655H254.226V101.166H251.894ZM248.308 101.43C247.311 101.43 246.438 101.195 245.69 100.726C244.957 100.242 244.378 99.5669 243.952 98.7015C243.542 97.8362 243.336 96.8242 243.336 95.6655C243.336 94.4922 243.542 93.4802 243.952 92.6295C244.378 91.7642 244.957 91.0969 245.69 90.6275C246.438 90.1435 247.311 89.9015 248.308 89.9015C249.232 89.9015 250.024 90.1435 250.684 90.6275C251.359 91.0969 251.872 91.7642 252.224 92.6295C252.576 93.4802 252.752 94.4922 252.752 95.6655C252.752 96.8242 252.576 97.8362 252.224 98.7015C251.872 99.5669 251.359 100.242 250.684 100.726C250.024 101.195 249.232 101.43 248.308 101.43ZM248.924 99.1855C249.482 99.1855 249.973 99.0389 250.398 98.7455C250.838 98.4375 251.176 98.0195 251.41 97.4915C251.66 96.9635 251.784 96.3549 251.784 95.6655C251.784 94.9762 251.66 94.3675 251.41 93.8395C251.176 93.3115 250.838 92.9009 250.398 92.6075C249.973 92.3142 249.474 92.1675 248.902 92.1675C248.316 92.1675 247.795 92.3142 247.34 92.6075C246.886 92.9009 246.526 93.3115 246.262 93.8395C246.013 94.3675 245.881 94.9762 245.866 95.6655C245.881 96.3549 246.013 96.9635 246.262 97.4915C246.526 98.0195 246.886 98.4375 247.34 98.7455C247.81 99.0389 248.338 99.1855 248.924 99.1855Z" fill="white"/>
<rect x="336" y="28" width="36" height="138" rx="9" fill="#D9D9D9" stroke="#555555" stroke-width="2"/>
</svg>
