<svg width="184" height="104" viewBox="0 0 184 104" fill="none" xmlns="http://www.w3.org/2000/svg">
<rect x="1" y="1" width="182" height="102" rx="11" fill="#D9D9D9" stroke="#555555" stroke-width="2"/>
<rect width="140" height="38" transform="translate(22 33)" fill="#D9D9D9"/>
<path d="M65.0797 56L61.8037 47.6H63.1957L66.5557 56H65.0797ZM58.3717 56L61.7197 47.6H63.1237L59.8477 56H58.3717ZM59.9437 53.936V52.7H64.9717V53.936H59.9437ZM71.6248 56L71.5648 54.884V47.6H72.8968V56H71.6248ZM69.6688 56.144C69.1248 56.144 68.6488 56.016 68.2408 55.76C67.8408 55.496 67.5248 55.128 67.2928 54.656C67.0688 54.184 66.9568 53.632 66.9568 53C66.9568 52.36 67.0688 51.808 67.2928 51.344C67.5248 50.872 67.8408 50.508 68.2408 50.252C68.6488 49.988 69.1248 49.856 69.6688 49.856C70.1728 49.856 70.6048 49.988 70.9648 50.252C71.3328 50.508 71.6128 50.872 71.8048 51.344C71.9968 51.808 72.0928 52.36 72.0928 53C72.0928 53.632 71.9968 54.184 71.8048 54.656C71.6128 55.128 71.3328 55.496 70.9648 55.76C70.6048 56.016 70.1728 56.144 69.6688 56.144ZM70.0048 54.92C70.3088 54.92 70.5768 54.84 70.8088 54.68C71.0488 54.512 71.2328 54.284 71.3608 53.996C71.4968 53.708 71.5648 53.376 71.5648 53C71.5648 52.624 71.4968 52.292 71.3608 52.004C71.2328 51.716 71.0488 51.492 70.8088 51.332C70.5768 51.172 70.3048 51.092 69.9928 51.092C69.6728 51.092 69.3888 51.172 69.1408 51.332C68.8928 51.492 68.6968 51.716 68.5528 52.004C68.4168 52.292 68.3448 52.624 68.3368 53C68.3448 53.376 68.4168 53.708 68.5528 53.996C68.6968 54.284 68.8928 54.512 69.1408 54.68C69.3968 54.84 69.6848 54.92 70.0048 54.92ZM78.7147 56L78.6547 54.884V47.6H79.9867V56H78.7147ZM76.7587 56.144C76.2147 56.144 75.7387 56.016 75.3307 55.76C74.9307 55.496 74.6147 55.128 74.3827 54.656C74.1587 54.184 74.0467 53.632 74.0467 53C74.0467 52.36 74.1587 51.808 74.3827 51.344C74.6147 50.872 74.9307 50.508 75.3307 50.252C75.7387 49.988 76.2147 49.856 76.7587 49.856C77.2627 49.856 77.6947 49.988 78.0547 50.252C78.4227 50.508 78.7027 50.872 78.8947 51.344C79.0867 51.808 79.1827 52.36 79.1827 53C79.1827 53.632 79.0867 54.184 78.8947 54.656C78.7027 55.128 78.4227 55.496 78.0547 55.76C77.6947 56.016 77.2627 56.144 76.7587 56.144ZM77.0947 54.92C77.3987 54.92 77.6667 54.84 77.8987 54.68C78.1387 54.512 78.3227 54.284 78.4507 53.996C78.5867 53.708 78.6547 53.376 78.6547 53C78.6547 52.624 78.5867 52.292 78.4507 52.004C78.3227 51.716 78.1387 51.492 77.8987 51.332C77.6667 51.172 77.3947 51.092 77.0827 51.092C76.7627 51.092 76.4787 51.172 76.2307 51.332C75.9827 51.492 75.7867 51.716 75.6427 52.004C75.5067 52.292 75.4347 52.624 75.4267 53C75.4347 53.376 75.5067 53.708 75.6427 53.996C75.7867 54.284 75.9827 54.512 76.2307 54.68C76.4867 54.84 76.7747 54.92 77.0947 54.92ZM84.619 56V47.6H87.583C88.159 47.6 88.667 47.716 89.107 47.948C89.547 48.18 89.891 48.504 90.139 48.92C90.387 49.328 90.511 49.804 90.511 50.348C90.511 50.876 90.395 51.348 90.163 51.764C89.931 52.18 89.607 52.508 89.191 52.748C88.783 52.98 88.307 53.096 87.763 53.096H86.011V56H84.619ZM86.011 51.812H87.739C88.139 51.812 88.467 51.676 88.723 51.404C88.979 51.132 89.107 50.78 89.107 50.348C89.107 49.908 88.963 49.552 88.675 49.28C88.387 49.008 88.015 48.872 87.559 48.872H86.011V51.812ZM91.576 56V50H92.908V56H91.576ZM92.248 48.86C92.032 48.86 91.844 48.784 91.684 48.632C91.532 48.472 91.456 48.284 91.456 48.068C91.456 47.852 91.532 47.668 91.684 47.516C91.844 47.364 92.032 47.288 92.248 47.288C92.464 47.288 92.648 47.364 92.8 47.516C92.96 47.668 93.04 47.852 93.04 48.068C93.04 48.284 92.96 48.472 92.8 48.632C92.648 48.784 92.464 48.86 92.248 48.86ZM94.552 58.4V50H95.812L95.896 51.104V58.4H94.552ZM97.792 56.144C97.288 56.144 96.852 56.016 96.484 55.76C96.124 55.496 95.848 55.128 95.656 54.656C95.464 54.184 95.368 53.632 95.368 53C95.368 52.36 95.464 51.808 95.656 51.344C95.848 50.872 96.124 50.508 96.484 50.252C96.852 49.988 97.288 49.856 97.792 49.856C98.336 49.856 98.808 49.988 99.208 50.252C99.616 50.508 99.932 50.872 100.156 51.344C100.388 51.808 100.504 52.36 100.504 53C100.504 53.632 100.388 54.184 100.156 54.656C99.932 55.128 99.616 55.496 99.208 55.76C98.808 56.016 98.336 56.144 97.792 56.144ZM97.456 54.92C97.776 54.92 98.06 54.84 98.308 54.68C98.556 54.512 98.752 54.284 98.896 53.996C99.048 53.708 99.124 53.376 99.124 53C99.124 52.624 99.052 52.292 98.908 52.004C98.772 51.716 98.58 51.492 98.332 51.332C98.084 51.172 97.796 51.092 97.468 51.092C97.164 51.092 96.892 51.172 96.652 51.332C96.412 51.492 96.224 51.716 96.088 52.004C95.96 52.292 95.896 52.624 95.896 53C95.896 53.376 95.96 53.708 96.088 53.996C96.224 54.284 96.408 54.512 96.64 54.68C96.88 54.84 97.152 54.92 97.456 54.92ZM104.328 56.144C103.744 56.144 103.224 56.012 102.768 55.748C102.32 55.476 101.964 55.104 101.7 54.632C101.444 54.16 101.316 53.616 101.316 53C101.316 52.384 101.448 51.84 101.712 51.368C101.976 50.896 102.336 50.528 102.792 50.264C103.256 49.992 103.784 49.856 104.376 49.856C104.912 49.856 105.396 49.996 105.828 50.276C106.26 50.548 106.6 50.944 106.848 51.464C107.104 51.984 107.232 52.604 107.232 53.324H102.516L102.696 53.156C102.696 53.524 102.776 53.844 102.936 54.116C103.096 54.38 103.308 54.584 103.572 54.728C103.836 54.872 104.128 54.944 104.448 54.944C104.816 54.944 105.12 54.864 105.36 54.704C105.6 54.536 105.788 54.32 105.924 54.056L107.112 54.56C106.944 54.88 106.728 55.16 106.464 55.4C106.208 55.64 105.9 55.824 105.54 55.952C105.188 56.08 104.784 56.144 104.328 56.144ZM102.78 52.46L102.588 52.292H105.972L105.792 52.46C105.792 52.132 105.72 51.864 105.576 51.656C105.432 51.44 105.248 51.28 105.024 51.176C104.808 51.064 104.58 51.008 104.34 51.008C104.1 51.008 103.86 51.064 103.62 51.176C103.38 51.28 103.18 51.44 103.02 51.656C102.86 51.864 102.78 52.132 102.78 52.46ZM108.262 56V47.6H109.606V56H108.262ZM111.182 56V50H112.514V56H111.182ZM111.854 48.86C111.638 48.86 111.45 48.784 111.29 48.632C111.138 48.472 111.062 48.284 111.062 48.068C111.062 47.852 111.138 47.668 111.29 47.516C111.45 47.364 111.638 47.288 111.854 47.288C112.07 47.288 112.254 47.364 112.406 47.516C112.566 47.668 112.646 47.852 112.646 48.068C112.646 48.284 112.566 48.472 112.406 48.632C112.254 48.784 112.07 48.86 111.854 48.86ZM114.098 56V50H115.358L115.442 51.104V56H114.098ZM118.166 56V52.928H119.51V56H118.166ZM118.166 52.928C118.166 52.448 118.11 52.08 117.998 51.824C117.894 51.56 117.742 51.376 117.542 51.272C117.35 51.168 117.122 51.116 116.858 51.116C116.41 51.108 116.062 51.256 115.814 51.56C115.566 51.864 115.442 52.3 115.442 52.868H114.938C114.938 52.236 115.03 51.696 115.214 51.248C115.398 50.792 115.662 50.448 116.006 50.216C116.35 49.976 116.758 49.856 117.23 49.856C117.71 49.856 118.118 49.952 118.454 50.144C118.798 50.336 119.058 50.636 119.234 51.044C119.418 51.444 119.51 51.968 119.51 52.616V52.928H118.166ZM123.547 56.144C122.963 56.144 122.443 56.012 121.987 55.748C121.539 55.476 121.183 55.104 120.919 54.632C120.663 54.16 120.535 53.616 120.535 53C120.535 52.384 120.667 51.84 120.931 51.368C121.195 50.896 121.555 50.528 122.011 50.264C122.475 49.992 123.003 49.856 123.595 49.856C124.131 49.856 124.615 49.996 125.047 50.276C125.479 50.548 125.819 50.944 126.067 51.464C126.323 51.984 126.451 52.604 126.451 53.324H121.735L121.915 53.156C121.915 53.524 121.995 53.844 122.155 54.116C122.315 54.38 122.527 54.584 122.791 54.728C123.055 54.872 123.347 54.944 123.667 54.944C124.035 54.944 124.339 54.864 124.579 54.704C124.819 54.536 125.007 54.32 125.143 54.056L126.331 54.56C126.163 54.88 125.947 55.16 125.683 55.4C125.427 55.64 125.119 55.824 124.759 55.952C124.407 56.08 124.003 56.144 123.547 56.144ZM121.999 52.46L121.807 52.292H125.191L125.011 52.46C125.011 52.132 124.939 51.864 124.795 51.656C124.651 51.44 124.467 51.28 124.243 51.176C124.027 51.064 123.799 51.008 123.559 51.008C123.319 51.008 123.079 51.064 122.839 51.176C122.599 51.28 122.399 51.44 122.239 51.656C122.079 51.864 121.999 52.132 121.999 52.46Z" fill="#555555"/>
</svg>
