<svg width="184" height="192" viewBox="0 0 184 192" fill="none" xmlns="http://www.w3.org/2000/svg">
<rect x="83" y="25" width="18" height="60" fill="#D9D9D9"/>
<mask id="path-2-outside-1_175_12" maskUnits="userSpaceOnUse" x="0" y="76" width="184" height="116" fill="black">
<rect fill="white" y="76" width="184" height="116"/>
<path fill-rule="evenodd" clip-rule="evenodd" d="M55.5748 84C60.7802 84 65.7946 78 71 78H113C118.205 78 123.22 84 128.425 84H172C177.523 84 182 88.4772 182 94V174C182 179.523 177.523 184 172 184H128.425C123.22 184 118.205 190 113 190H71C65.7946 190 60.7802 184 55.5748 184H12C6.47715 184 2 179.523 2 174V94C2 88.4772 6.47715 84 12 84H55.5748Z"/>
</mask>
<path fill-rule="evenodd" clip-rule="evenodd" d="M55.5748 84C60.7802 84 65.7946 78 71 78H113C118.205 78 123.22 84 128.425 84H172C177.523 84 182 88.4772 182 94V174C182 179.523 177.523 184 172 184H128.425C123.22 184 118.205 190 113 190H71C65.7946 190 60.7802 184 55.5748 184H12C6.47715 184 2 179.523 2 174V94C2 88.4772 6.47715 84 12 84H55.5748Z" fill="#D9D9D9"/>
<path d="M113 76H71V80H113V76ZM128.425 86H172V82H128.425V86ZM180 94V174H184V94H180ZM172 182H128.425V186H172V182ZM71 192H113V188H71V192ZM55.5748 182H12V186H55.5748V182ZM4 174V94H0V174H4ZM12 86H55.5748V82H12V86ZM4 94C4 89.5817 7.58172 86 12 86V82C5.37258 82 0 87.3726 0 94H4ZM12 182C7.58172 182 4 178.418 4 174H0C0 180.627 5.37258 186 12 186V182ZM71 188C69.0492 188 66.9938 186.857 64.3 185.275C61.8839 183.857 58.8294 182 55.5748 182V186C57.5256 186 59.581 187.143 62.2748 188.725C64.6909 190.143 67.7454 192 71 192V188ZM180 174C180 178.418 176.418 182 172 182V186C178.627 186 184 180.627 184 174H180ZM172 86C176.418 86 180 89.5817 180 94H184C184 87.3726 178.627 82 172 82V86ZM113 80C114.951 80 117.006 81.1432 119.7 82.7247C122.116 84.1432 125.171 86 128.425 86V82C126.474 82 124.419 80.8568 121.725 79.2753C119.309 77.8568 116.255 76 113 76V80ZM128.425 182C125.171 182 122.116 183.857 119.7 185.275C117.006 186.857 114.951 188 113 188V192C116.255 192 119.309 190.143 121.725 188.725C124.419 187.143 126.474 186 128.425 186V182ZM71 76C67.7454 76 64.6909 77.8568 62.2748 79.2753C59.581 80.8568 57.5256 82 55.5748 82V86C58.8294 86 61.8839 84.1432 64.3 82.7247C66.9938 81.1432 69.0492 80 71 80V76Z" fill="#555555" mask="url(#path-2-outside-1_175_12)"/>
<path d="M35 5H44.8432C47.0231 5 49.1433 5.7123 50.881 7.02845L71.9304 22.9715C73.6681 24.2877 75.7883 25 77.9682 25H107.121C109.301 25 111.421 24.2877 113.159 22.9715L134.208 7.02845C135.946 5.7123 138.066 5 140.246 5H149.342" stroke="#555555" stroke-width="10"/>
<path d="M22 5H162" stroke="#555555" stroke-width="10" stroke-linecap="round"/>
<circle cx="171" cy="95" r="5" fill="#C74D4D"/>
</svg>
