<svg width="14" height="14" viewBox="0 0 14 14" fill="none" xmlns="http://www.w3.org/2000/svg">
<path d="M12.2444 9.96327L12.2444 9.96326L12.2426 9.96645C11.686 10.9452 10.9097 11.7033 9.91761 12.262C8.93554 12.8107 7.86772 13.09 6.6999 13.09C5.51153 13.09 4.43344 12.8104 3.44147 12.2615C2.46235 11.7143 1.69402 10.9468 1.11549 9.96327L1.11494 9.96235C0.539921 8.99437 0.25 7.88921 0.25 6.66C0.25 5.43178 0.539461 4.33638 1.11493 3.3577C1.12817 3.33564 1.14146 3.31402 1.15495 3.29236L4.10349 5.28468C3.95916 5.68878 3.89 6.14877 3.89 6.66C3.89 7.58217 4.12113 8.34378 4.60754 8.92969L4.60751 8.92971L4.61061 8.9333C5.10758 9.50934 5.81308 9.79 6.6899 9.79C7.55838 9.79 8.25314 9.50827 8.74919 8.9333L8.74922 8.93333L8.75225 8.92969C9.23865 8.3438 9.4699 7.5822 9.4699 6.66C9.4699 5.73138 9.24035 4.95707 8.75074 4.38849C8.25436 3.7917 7.55806 3.51 6.6899 3.51C6.0681 3.51 5.53125 3.65617 5.09346 3.95391L2.19172 1.99298C2.56325 1.64172 2.98158 1.33676 3.44173 1.07836C4.43347 0.529625 5.52145 0.25 6.6999 0.25C7.88805 0.25 8.95578 0.529476 9.93748 1.07798C10.9092 1.62645 11.6764 2.37474 12.2435 3.35517L12.2435 3.35518L12.245 3.35768C12.82 4.32562 13.1099 5.43078 13.1099 6.66C13.1099 7.88861 12.8203 8.98432 12.2444 9.96327Z" fill="white" stroke="white" stroke-width="0.5"/>
</svg>
