<svg xmlns="http://www.w3.org/2000/svg" width="115" height="27" fill="none"><path fill="#144662" d="m39.901 26.055-4.774-9.118h-.036v9.118h-7.97V.64h11.847c2.058 0 3.817.37 5.277 1.113 1.46.718 2.549 1.71 3.267 2.98.742 1.244 1.113 2.656 1.113 4.235 0 1.7-.479 3.207-1.436 4.524-.934 1.316-2.286 2.261-4.057 2.836l5.529 9.728H39.9zm-4.81-14.431h3.159c.766 0 1.34-.168 1.723-.503.383-.359.574-.91.574-1.651 0-.67-.203-1.197-.61-1.58-.383-.383-.945-.574-1.687-.574h-3.16v4.308zm32.378 10.59h-8.472l-1.257 3.841h-8.364L58.674.64h9.19l9.262 25.416h-8.4l-1.257-3.841zm-1.939-5.995-2.297-7.072-2.298 7.072h4.595zM102.45.639v25.416h-7.97v-9.908h-7.574v9.908h-7.97V.64h7.97v9.154h7.575V.639h7.969zm11.556 0v25.416h-7.97V.64h7.97z"/><path fill="#144662" fill-rule="evenodd" d="M6.498 24.411c2.01 1.125 4.212 1.688 6.605 1.688 2.37 0 4.547-.563 6.534-1.688a12.33 12.33 0 0 0 4.738-4.667c1.173-1.986 1.76-4.224 1.76-6.713s-.587-4.726-1.76-6.713c-1.148-1.986-2.716-3.53-4.702-4.63C17.686.561 15.496 0 13.103 0 10.71 0 8.508.562 6.498 1.687a12.37 12.37 0 0 0-2.97 2.283l6.459 4.36c.805-.648 1.844-.972 3.116-.972 1.58 0 2.8.515 3.662 1.544.861 1.005 1.292 2.381 1.292 4.128 0 1.723-.43 3.1-1.292 4.129-.862 1.005-2.082 1.508-3.662 1.508-1.603 0-2.836-.503-3.697-1.508-.862-1.03-1.293-2.405-1.293-4.129 0-1.111.175-2.072.523-2.884l-6.52-4.402c-.123.187-.242.378-.357.573C.586 8.305 0 10.542 0 13.031c0 2.49.586 4.727 1.76 6.713a12.667 12.667 0 0 0 4.738 4.667z" clip-rule="evenodd"/></svg>